<svg width="32" height="32" viewBox="0 0 32 32" fill="none" xmlns="http://www.w3.org/2000/svg">
  <rect width="32" height="32" rx="6" fill="#1F2937"/>
  <path d="M16 6C11.6 6 8 9.6 8 14C8 16.2 8.8 18.2 10.2 19.6L9.4 22.4C9.2 23.1 9.6 23.8 10.3 24C10.4 24 10.5 24 10.6 24C11.2 24 11.7 23.6 11.8 23L12.6 20.2C13.4 20.4 14.2 20.5 15 20.5C15.8 20.5 16.6 20.4 17.4 20.2L18.2 23C18.3 23.6 18.8 24 19.4 24C19.5 24 19.6 24 19.7 24C20.4 23.8 20.8 23.1 20.6 22.4L19.8 19.6C21.2 18.2 22 16.2 22 14C22 9.6 18.4 6 14 6H16Z" fill="#60A5FA"/>
  <path d="M16 8C12.7 8 10 10.7 10 14C10 15.7 10.7 17.2 11.8 18.3L11.2 20.5C11.1 20.9 11.3 21.3 11.7 21.4C11.8 21.4 11.9 21.4 12 21.4C12.3 21.4 12.6 21.2 12.7 20.9L13.3 18.7C14.1 18.9 15 19 16 19C17 19 17.9 18.9 18.7 18.7L19.3 20.9C19.4 21.2 19.7 21.4 20 21.4C20.1 21.4 20.2 21.4 20.3 21.4C20.7 21.3 20.9 20.9 20.8 20.5L20.2 18.3C21.3 17.2 22 15.7 22 14C22 10.7 19.3 8 16 8Z" fill="#3B82F6"/>
  <circle cx="13" cy="12" r="1.5" fill="#FFFFFF"/>
  <circle cx="19" cy="12" r="1.5" fill="#FFFFFF"/>
  <path d="M14 15C14 15.6 14.4 16 15 16C15.6 16 16 15.6 16 15C16 14.4 15.6 14 15 14C14.4 14 14 14.4 14 15Z" fill="#FFFFFF"/>
</svg>
